<svg xmlns="http://www.w3.org/2000/svg" xmlns:xlink="http://www.w3.org/1999/xlink" version="1.0" x="0" y="0" width="2400" height="1616.774585200291" viewBox="139.4 104.3861297607422 61.2 41.227751922607425" preserveAspectRatio="xMidYMid meet" color-interpolation-filters="sRGB"><g><defs><linearGradient id="92" x1="0%" y1="0%" x2="100%" y2="0%"><stop offset="0%" stop-color="#fa71cd"></stop> <stop offset="100%" stop-color="#9b59b6"></stop></linearGradient><linearGradient id="93" x1="0%" y1="0%" x2="100%" y2="0%"><stop offset="0%" stop-color="#f9d423"></stop> <stop offset="100%" stop-color="#f83600"></stop></linearGradient><linearGradient id="94" x1="0%" y1="0%" x2="100%" y2="0%"><stop offset="0%" stop-color="#0064d2"></stop> <stop offset="100%" stop-color="#1cb0f6"></stop></linearGradient><linearGradient id="95" x1="0%" y1="0%" x2="100%" y2="0%"><stop offset="0%" stop-color="#f00978"></stop> <stop offset="100%" stop-color="#3f51b1"></stop></linearGradient><linearGradient id="96" x1="0%" y1="0%" x2="100%" y2="0%"><stop offset="0%" stop-color="#7873f5"></stop> <stop offset="100%" stop-color="#ec77ab"></stop></linearGradient><linearGradient id="97" x1="0%" y1="0%" x2="100%" y2="0%"><stop offset="0%" stop-color="#f9d423"></stop> <stop offset="100%" stop-color="#e14fad"></stop></linearGradient><linearGradient id="98" x1="0%" y1="0%" x2="100%" y2="0%"><stop offset="0%" stop-color="#009efd"></stop> <stop offset="100%" stop-color="#2af598"></stop></linearGradient><linearGradient id="99" x1="0%" y1="0%" x2="100%" y2="0%"><stop offset="0%" stop-color="#ffcc00"></stop> <stop offset="100%" stop-color="#00b140"></stop></linearGradient><linearGradient id="100" x1="0%" y1="0%" x2="100%" y2="0%"><stop offset="0%" stop-color="#d51007"></stop> <stop offset="100%" stop-color="#ff8177"></stop></linearGradient><linearGradient id="102" x1="0%" y1="0%" x2="100%" y2="0%"><stop offset="0%" stop-color="#a2b6df"></stop> <stop offset="100%" stop-color="#0c3483"></stop></linearGradient><linearGradient id="103" x1="0%" y1="0%" x2="100%" y2="0%"><stop offset="0%" stop-color="#7ac5d8"></stop> <stop offset="100%" stop-color="#eea2a2"></stop></linearGradient><linearGradient id="104" x1="0%" y1="0%" x2="100%" y2="0%"><stop offset="0%" stop-color="#00ecbc"></stop> <stop offset="100%" stop-color="#007adf"></stop></linearGradient><linearGradient id="105" x1="0%" y1="0%" x2="100%" y2="0%"><stop offset="0%" stop-color="#b88746"></stop> <stop offset="100%" stop-color="#fdf5a6"></stop></linearGradient></defs><g class="imagesvg isNoFont" transform="translate(140,104.98612403869629)"><g><rect fill="#F8A90A" fill-opacity="0" stroke-width="2" x="0" y="0" width="60" height="40.02775257511875" class="image-rect"></rect> <svg x="0" y="0" width="60" height="40.02775257511875" filtersec="colorsb5607183468" class="image-svg-svg primary" style="overflow: visible;"><svg xmlns="http://www.w3.org/2000/svg" viewBox="464.7899169921875 650.7565307617188 1118.4317626953125 746.1399536132812" preserveAspectRatio="none" display="block"><path fill="#000000" d="M 993.567 651.401 C 1004.31 650.632 1018.35 650.755 1029.21 650.777 C 1111.22 650.994 1190.64 679.536 1254.03 731.572 C 1269.5 744.07 1283.2 757.829 1297.2 771.901 C 1363.31 759.07 1467.65 747.853 1532.19 768.939 C 1550.09 774.786 1570.57 784.484 1579.13 802.338 C 1585.19 814.996 1583.88 828.468 1579.35 841.323 C 1544.89 939.049 1332.56 1039.27 1240.23 1083.86 C 1235.39 1055.88 1232.5 1043.99 1220.68 1018.8 C 1232.87 1012.03 1248.74 1005.68 1262.05 998.49 C 1312.66 971.107 1362.4 944.076 1405.74 906.546 C 1481.73 840.733 1443.32 805.195 1358 805.37 C 1348.69 805.39 1336.99 806.958 1327.61 807.007 L 1326.32 807.005 C 1339.85 827.841 1362.63 867.033 1369.08 890.878 C 1345.77 907.779 1321.59 923.46 1296.66 937.859 C 1289.07 920.222 1283.96 902.645 1274.48 885.445 C 1205.37 760.052 1064.03 703.942 928.861 750.74 C 925.398 751.984 921.959 753.299 918.549 754.685 C 849.551 782.838 789.497 840.161 760.735 909.116 C 730.537 980.017 730.453 1060.15 760.502 1131.11 C 729.964 1136.59 702.648 1137.13 671.856 1137.11 C 661.108 1098.2 658.305 1086.19 654.093 1045.2 C 637.713 1055.45 611.091 1078.08 599.62 1092.35 C 513.893 1199.01 739.318 1174.02 785.991 1163.82 C 802.816 1160.14 820.842 1156.74 838.488 1154.36 C 834.977 1173.78 832.673 1203.14 830.326 1223.58 C 814.456 1227.77 796.858 1230.13 780.512 1233.14 C 707.283 1246.62 631.961 1255.33 557.482 1249.4 C 548.136 1248.79 537.954 1246.62 529.016 1244.91 C 498.325 1239.05 454.247 1215.39 467.07 1176.68 C 491.067 1104.25 593.136 1038.21 654.013 1002.14 C 660.652 916.84 688.111 843.991 744.322 778.866 C 807.179 704.963 896.854 659.103 993.567 651.401 z"></path><path fill="#000000" d="M 954.179 782.077 C 968.576 781.424 983.421 781.803 997.872 781.98 C 997.631 803.996 997.701 826.015 998.081 848.029 L 1031.1 847.879 C 1030.83 825.955 1030.87 804.027 1031.21 782.104 C 1046.44 781.874 1061.3 781.6 1076.52 782.002 C 1076.39 804.148 1076.52 826.295 1076.92 848.438 C 1109.75 851.25 1156.03 862.833 1171.2 895.927 C 1188.94 934.622 1180.27 983.022 1139.66 1003.29 C 1177.4 1017.36 1200.42 1036.03 1202.95 1078.35 C 1208.25 1167.03 1151.62 1188.4 1076.56 1193.13 L 1076.59 1236.25 C 1076.54 1244.81 1076.44 1253.36 1076.3 1261.91 C 1061.47 1262.42 1046.31 1262.57 1031.46 1262.88 C 1030.52 1240.34 1030.85 1216.57 1030.82 1193.93 C 1020.15 1193.66 1008.49 1193.05 997.938 1193.98 L 997.49 1261.8 C 983.039 1262 968.375 1261.9 953.905 1261.93 C 953.663 1239.2 953.586 1216.47 953.673 1193.74 C 930.077 1192.18 895.431 1193.19 871.069 1193.3 C 870.721 1177.15 871.713 1161 874.032 1145.02 C 883.184 1145.12 907.243 1143.5 913.027 1137.11 C 922.076 1127.12 919.136 1091.27 919.047 1077.9 L 919.024 1015.81 L 919.064 953.983 C 919.077 905.043 926.747 892.946 871.815 892.084 C 871.339 877.463 871.337 862.83 871.809 848.209 L 953.935 847.948 C 953.282 827.498 953.776 802.551 954.179 782.077 z M 1097.89 1123.47 C 1107.38 1114.98 1115.99 1104.82 1116.05 1091.53 C 1116.28 1040.7 1059.44 1037.75 1024.47 1036.99 C 1014.67 1036.76 1004.88 1036.98 995.107 1037.64 C 993.525 1047.26 993.842 1070.57 993.987 1081.17 C 994.241 1099.88 993.759 1121.61 994.92 1140.08 C 1027.77 1140.27 1070 1142.6 1097.89 1123.47 z M 994.855 991.804 C 1024.28 991.803 1056.73 993.125 1082.37 977.471 C 1091.49 970.001 1097.41 961.232 1098.18 949.274 C 1101.07 904.521 1047.78 900.408 1016.61 899.885 C 1009.21 899.761 1001.81 899.759 994.41 899.88 C 994.812 930.303 993.545 961.456 994.855 991.804 z"></path><path fill="#000000" d="M 1389.06 1049.83 L 1390.76 1050.6 C 1391.73 1057.14 1388.07 1078.02 1386.87 1085.44 C 1376.89 1150.55 1349.5 1211.76 1307.6 1262.59 C 1174.3 1422.76 943.291 1441.76 783.607 1308.33 C 771.267 1298.04 760.538 1286.35 749.453 1274.74 C 783.815 1272.14 820.106 1259.83 852.42 1255.42 C 882.205 1275.47 910.937 1291.37 945.988 1301.16 C 1019.45 1321.72 1098.07 1312.17 1164.47 1274.62 C 1235.05 1234.13 1277.9 1173.49 1299.08 1095.78 C 1308.42 1090.79 1319.85 1085.71 1329.57 1080.76 L 1389.06 1049.83 z"></path></svg></svg> </g></g><defs v-gra="od"></defs></g></svg>